<?xml version="1.0" encoding="utf-8"?>
<!-- Generator: Adobe Illustrator 16.0.0, SVG Export Plug-In . SVG Version: 6.00 Build 0)  -->
<!DOCTYPE svg PUBLIC "-//W3C//DTD SVG 1.1//EN" "http://www.w3.org/Graphics/SVG/1.1/DTD/svg11.dtd">
<svg version="1.1" id="Layer_1" xmlns="http://www.w3.org/2000/svg" xmlns:xlink="http://www.w3.org/1999/xlink" x="0px" y="0px"
	 width="640.273px" height="130.891px" viewBox="0 0 640.273 130.891" enable-background="new 0 0 640.273 130.891"
	 xml:space="preserve">
<g>
	<path fill-rule="evenodd" clip-rule="evenodd" fill="#385671" d="M98.145,30.858c4.933,0,9.553,0,14.533,0
		c0.282,1.315,0.579,2.703,0.899,4.197c0.514-0.099,1.009-0.097,1.415-0.287c3.461-1.616,6.808-3.532,10.376-4.851
		c7.739-2.86,14.717-1.088,20.915,4.171c1,0.848,1.959,1.744,3.174,2.828c2.931-1.639,5.798-3.255,8.678-4.848
		c6.588-3.642,13.492-4.505,20.729-2.293c6.326,1.933,10.113,6.184,11.331,12.655c0.398,2.116,0.69,4.289,0.698,6.437
		c0.057,16.66,0.039,33.32,0.018,49.98c-0.001,1.295-0.204,2.59-0.328,4.071c-4.998,0-9.738,0-14.974,0c0-2.044,0-3.833,0-5.623
		c0-15.493-0.1-30.989,0.043-46.481c0.064-6.938-1.299-10.537-11.054-8.171c-4.043,0.98-7.671,3.678-11.393,5.546
		c0,18.547,0,36.355,0,54.576c-4.974,0-9.71,0-15.104,0c-0.083-1.516-0.258-3.254-0.26-4.993
		c-0.022-14.327-0.002-28.655-0.024-42.983c-0.003-2.162-0.028-4.339-0.275-6.483c-0.537-4.647-3.161-6.753-7.867-6.16
		c-6.158,0.776-11.109,4.192-16.482,7.83c0,17.476,0,35.064,0,52.925c-5.25,0-9.992,0-15.048,0
		C98.145,78.856,98.145,54.963,98.145,30.858z"/>
	<path fill-rule="evenodd" clip-rule="evenodd" fill="#385671" d="M227.811,31.223c0.286,1.294,0.559,2.526,0.912,4.123
		c1.083-0.686,1.948-1.136,2.705-1.726c11.761-9.163,27.513-5.164,35.112,7.733c2.74,4.65,4.506,9.661,5.168,14.995
		c1.463,11.78,0.424,23.313-4.64,34.161c-5.657,12.119-18.201,17.676-30.285,13.5c-2.874-0.992-5.402-2.988-8.586-4.809
		c0,9.988,0,19.736,0,29.724c-5.257,0-10.002,0-15.059,0c0-32.573,0-64.958,0-97.701C218.17,31.223,222.909,31.223,227.811,31.223z
		 M256.59,65.711c0.055-7.384-1.147-13.592-3.376-17.441c-2.982-5.148-7.965-7.332-13.574-5.349
		c-3.076,1.087-5.856,3.038-8.725,4.677c-2.085,1.191-2.766,3.062-2.713,5.462c0.126,5.658-0.194,11.335,0.143,16.977
		c0.226,3.781,0.866,7.649,2.076,11.224c0.924,2.729,2.622,5.481,4.694,7.479c5.428,5.234,13.723,3.854,17.342-2.717
		C255.927,79.724,256.505,72.747,256.59,65.711z"/>
	<path fill-rule="evenodd" clip-rule="evenodd" fill="#385671" d="M576.4,30.919c5.596,0,10.676,0,16.27,0
		c5.687,17.722,11.408,35.556,17.414,54.274c6.672-17.931,10.829-35.884,14.936-54.548c2.372,0,4.814,0,7.258,0
		c2.474,0,4.947,0,7.996,0c-0.398,2.211-0.623,3.946-1.029,5.636c-4.934,20.546-10.648,40.86-18.984,60.323
		c-2.547,5.944-5.494,11.768-8.796,17.327c-6.283,10.582-12.077,14.36-24.81,16.959c-1.045-3.419-2.102-6.876-3.368-11.023
		c8.759-2.604,14.526-8.46,18.282-17.06C593.311,79.218,584.926,55.27,576.4,30.919z"/>
	<path fill-rule="evenodd" clip-rule="evenodd" fill="#385671" d="M364.592,28.639c7.139,0.053,14.504,3.711,19.847,11.047
		c6.644,9.122,8.812,19.511,8.126,30.641c-0.501,8.123-2.577,15.73-7.141,22.536c-10.764,16.056-32.93,16.645-44.399,1.094
		c-1.947-2.64-3.526-5.665-4.713-8.731c-5.104-13.193-4.728-26.366,1.087-39.246C342.41,34.879,351.655,28.684,364.592,28.639z
		 M347.46,66.718c0.599,6.074,1.743,11.733,4.294,17.057c2.185,4.557,5.349,8.335,10.769,8.477c5.695,0.15,9.033-3.696,11.29-8.423
		c3.456-7.237,4.463-14.894,3.235-22.812c-0.872-5.63-2.277-11.088-6.239-15.471c-4.938-5.463-11.65-5.396-16.312,0.301
		c-1.445,1.767-2.777,3.847-3.419,6.005C349.625,56.734,348.637,61.754,347.46,66.718z"/>
	<path fill-rule="evenodd" clip-rule="evenodd" fill="#385671" d="M532.59,65.242c-14.938,0-28.732,0-43.031,0
		c-0.815,9.273,0.805,17.466,7.165,24.154c2.515,2.645,6.064,3.781,9.672,2.596c4.392-1.441,8.646-3.317,12.911-5.119
		c1.333-0.562,2.51-1.49,4.174-2.506c1.691,3.374,3.223,6.431,4.887,9.752c-7.305,5.969-15.143,10.309-24.361,10.949
		c-10.141,0.703-18.356-3.494-23.354-12.449c-7.209-12.92-8.879-26.788-4.74-41.017c2.5-8.592,7.641-15.528,15.806-19.752
		c16.078-8.319,34.984,0.181,39.331,17.926C532.21,54.518,532.065,59.58,532.59,65.242z M492.047,52.376c8.327,0,16.205,0,24.071,0
		c0.173-6.823-4.044-11.708-10.347-12.262C498.611,39.485,493.413,44.013,492.047,52.376z"/>
	<path fill-rule="evenodd" clip-rule="evenodd" fill="#385671" d="M402.086,30.919c5.826,0,10.922,0,16.515,0
		c5.194,16.206,10.439,32.566,15.684,48.927c7.565-15.842,12.101-32.278,16.107-48.905c5.409,0,10.492,0,16.187,0
		c-6.758,25.01-15.679,48.711-26.533,71.961c-3.669,0-7.275,0-11.611,0C419.776,79.251,411.02,55.325,402.086,30.919z"/>
	<path fill-rule="evenodd" clip-rule="evenodd" fill="#385671" d="M551.836,102.866c-3.033-7.784-4.048-15.75-4.127-23.693
		c-0.252-25.625-0.094-51.253-0.084-76.88c0-0.649,0.123-1.298,0.223-2.292c4.623,0,9.183,0,14.272,0
		c0.092,1.733,0.265,3.494,0.267,5.254c0.021,18.139,0.084,36.277-0.01,54.416c-0.072,14.003,0.292,27.931,4.694,41.417
		c0.143,0.438-0.029,0.977-0.07,1.779C562.062,102.866,557.158,102.866,551.836,102.866z"/>
	<path fill-rule="evenodd" clip-rule="evenodd" fill="#385671" d="M305.925,103.181c-2.022,0-3.336,0-4.651,0
		c-3.312,0-6.622,0-10.299,0c0-24.135,0-47.989,0-72.19c4.848,0,9.739,0,14.847,0c0.218,1.267,0.434,2.524,0.683,3.969
		c3.173-2.087,5.968-4.531,9.216-5.893c3.321-1.393,6.849-0.325,10.49,1.762c-0.756,4.54-1.529,9.188-2.353,14.138
		c-1.298-0.434-2.276-0.633-3.135-1.069c-4.548-2.31-8.244-0.853-11.768,2.309c-2.133,1.914-3.112,3.984-3.088,6.926
		c0.125,14.803,0.058,29.608,0.057,44.413C305.925,99.185,305.925,100.825,305.925,103.181z"/>
	<path fill-rule="evenodd" clip-rule="evenodd" fill="#385671" d="M74.689,102.935c-4.385,0-8.831,0-13.681,0
		c0-23.842,0-47.716,0-72.177c4.326-0.756,8.899-0.268,13.375-0.28C75.64,34.291,75.877,97.337,74.689,102.935z"/>
	<path fill-rule="evenodd" clip-rule="evenodd" fill="#385671" d="M30.812,102.796c0-16.629,0-33.029,0-49.837
		c4.598,0,9.145,0,13.726,0c1.057,3.399,1.465,40.87,0.474,49.837C40.512,102.796,35.949,102.796,30.812,102.796z"/>
	<path fill-rule="evenodd" clip-rule="evenodd" fill="#385671" d="M14.138,102.942c-4.854,0-9.299,0-14.138,0
		c0-9.384,0-18.783,0-28.631c4.516,0,9.193,0,14.138,0C14.138,83.804,14.138,93.079,14.138,102.942z"/>
	<path fill-rule="evenodd" clip-rule="evenodd" fill="#385671" d="M78.224,11.275c-0.11,5.49-4.698,9.888-10.328,9.898
		c-5.641,0.01-9.976-4.238-9.817-9.621c0.166-5.618,5.13-10.113,10.93-9.896C74.424,1.858,78.331,5.937,78.224,11.275z"/>
</g>
</svg>
